

<svg  xmlns="http://www.w3.org/2000/svg"
 height="1047.000000pt" viewBox="0 0 840.000000 1047.000000"
 preserveAspectRatio="xMidYMid meet" fill="currentColor">

<g transform="translate(0.000000,1047.000000) scale(0.100000,-0.100000)"
fill="currentColor" stroke="none">
<path d="M2462 9232 l-2453 -1227 4 -1380 c3 -1506 1 -1443 63 -1805 145 -849
529 -1651 1099 -2300 119 -134 392 -403 515 -505 244 -203 350 -270 1790
-1140 788 -476 1436 -865 1441 -865 5 0 9 304 9 689 l0 690 123 74 c67 41 489
296 937 567 853 514 966 590 1185 787 726 655 1149 1531 1215 2513 5 80 10
577 10 1105 l0 960 -1735 868 -1735 867 0 665 c0 366 -3 665 -7 664 -5 0
-1112 -552 -2461 -1227z m2048 -487 l0 -1035 -1125 0 -1126 0 3 -1367 c4
-1356 4 -1369 25 -1488 47 -255 119 -478 223 -691 181 -368 451 -683 795 -929
310 -221 719 -380 1103 -426 l102 -13 0 -1024 c0 -815 -3 -1023 -12 -1019 -23
9 -2172 1308 -2233 1350 -341 233 -703 581 -968 929 -403 530 -682 1166 -802
1823 -60 333 -58 281 -62 1640 l-4 1250 2033 1017 c1118 559 2036 1017 2041
1017 4 1 7 -465 7 -1034z m2270 -2548 c0 -708 -4 -1133 -10 -1187 -86 -691
-504 -1283 -1125 -1593 -261 -130 -525 -200 -807 -214 l-128 -6 0 2051 0 2052
1035 0 1035 0 0 -1103z"/>
</g>
</svg>
