<?xml version="1.0" encoding="UTF-8"?>
<svg id="Capa_5" data-name="Capa 5" xmlns="http://www.w3.org/2000/svg" viewBox="0 0 283.94 262.63">
  <defs>
    <style>
      .cls-1 {
        fill: #1d1d1b;
      }

      .cls-2 {
        fill: none;
        stroke: #1d1d1b;
        stroke-miterlimit: 10;
        stroke-width: 10px;
      }
    </style>
  </defs>
  <path class="cls-1" d="M246.22,83.5v44.14c0,30.4-15.36,57.22-38.75,73.09l-7.93,4.79-17.23,10.41-24.37,14.71v-46.49c27.35,0,49.53-22,49.53-49.14v-49.01h-49.53v-46.64l88.28,44.14Z"/>
  <path class="cls-2" d="M157.94,18v63h-54v54c0,29.82,24.18,54,54,54v63l-29.81-18-21.08-12.73-9.7-5.86c-28.62-19.42-47.41-52.22-47.41-89.41v-54l108-54Z"/>
  <path class="cls-1" d="M157.94,85.88v98.27c-27.35,0-49.53-22-49.53-49.14v-49.13h49.53Z"/>
</svg>